<svg xmlns="http://www.w3.org/2000/svg" viewBox="0 0 201.55 195.86"><defs><style>.cls-1,.cls-3{fill:#ac2b28;}.cls-2{fill:#0063a7;}.cls-3{font-size:48px;font-family:Roboto-Regular, Roboto;}</style></defs><g id="Слой_2" data-name="Слой 2"><g id="Layer_1" data-name="Layer 1"><path class="cls-1" d="M101.61,0A51.37,51.37,0,0,0,50.24,51.37c0,35.13,51.37,83.52,51.37,83.52S153,86.72,153,51.37A51.37,51.37,0,0,0,101.61,0Zm0,93.59a42.22,42.22,0,1,1,42.22-42.22A42.27,42.27,0,0,1,101.61,93.59Z"/><path class="cls-2" d="M101.61,13.62a38.21,38.21,0,1,0,38.21,38.2A38.2,38.2,0,0,0,101.61,13.62ZM79.48,41.08H89.81V30.75a7.79,7.79,0,0,1,7.9-7.67h7.8a7.79,7.79,0,0,1,7.9,7.67V41.08h10.33a7.8,7.8,0,0,1,7.68,7.9v7H114.5L111,45.61a1.34,1.34,0,0,0-2.55,0l-1.71,5.8L104.5,36.9a1.34,1.34,0,0,0-1.26-1.13,1.36,1.36,0,0,0-1.36,1L96.52,59.11,93,45.14a1.31,1.31,0,0,0-1.26-1,1.33,1.33,0,0,0-1.31,1l-3.2,10.69H71.8V49A7.8,7.8,0,0,1,79.48,41.08Zm44.26,23.6H113.41V75a7.8,7.8,0,0,1-7.9,7.68h-7.8A7.8,7.8,0,0,1,89.81,75V64.68H79.48A7.73,7.73,0,0,1,72,58.45H88.23a1.33,1.33,0,0,0,1.28-1l2.09-7L95.26,65a1.34,1.34,0,0,0,1.29,1h0a1.33,1.33,0,0,0,1.29-1l5-21L105,57.77a1.34,1.34,0,0,0,2.6.18l2.21-7.49,2.47,7.31a1.33,1.33,0,0,0,1.26.91h17.65A7.73,7.73,0,0,1,123.74,64.68Z"/><text class="cls-3" transform="translate(0 182.85)">IMPULSE</text><polygon class="cls-1" points="71.81 55.78 87.23 55.78 90.43 45.09 90.52 44.87 90.62 44.71 90.72 44.58 90.87 44.43 91.05 44.31 91.23 44.23 91.47 44.16 91.69 44.14 91.85 44.14 92.03 44.17 92.24 44.25 92.44 44.35 92.62 44.49 92.78 44.67 92.91 44.9 93 45.15 96.52 59.11 101.88 36.79 101.94 36.62 102.01 36.47 102.12 36.3 102.25 36.15 102.43 36.01 102.57 35.92 102.77 35.84 102.98 35.79 103.13 35.77 103.23 35.77 103.43 35.79 103.58 35.83 103.74 35.89 103.89 35.97 104.07 36.11 104.21 36.26 104.33 36.43 104.43 36.65 104.5 36.9 106.73 51.46 108.44 45.66 108.54 45.42 108.68 45.21 108.86 45.02 108.97 44.93 109.16 44.83 109.36 44.75 109.55 44.72 109.78 44.7 109.93 44.71 110.12 44.75 110.32 44.84 110.5 44.95 110.67 45.09 110.83 45.3 110.96 45.54 111.06 45.84 114.5 56.01 131.42 56.01 131.42 57.38 131.19 58.68 113.55 58.68 113.44 58.67 113.34 58.66 113.23 58.63 113.08 58.59 112.96 58.54 112.8 58.45 112.65 58.33 112.49 58.16 112.36 57.97 112.28 57.77 109.81 50.46 107.6 57.95 107.51 58.17 107.41 58.34 107.25 58.53 107.13 58.63 106.97 58.73 106.81 58.81 106.58 58.88 106.45 58.9 106.26 58.9 106.09 58.88 105.93 58.84 105.76 58.78 105.59 58.68 105.42 58.55 105.29 58.41 105.16 58.23 105.07 58.02 105.03 57.87 105 57.77 102.89 44.01 97.85 65.01 97.79 65.19 97.68 65.41 97.57 65.56 97.41 65.72 97.15 65.89 96.93 65.97 96.7 66.02 96.48 66.03 96.3 66 96.04 65.93 95.94 65.87 95.85 65.83 95.76 65.77 95.67 65.69 95.55 65.57 95.42 65.39 95.3 65.16 95.26 65.02 91.6 50.49 89.51 57.5 89.42 57.73 89.32 57.89 89.2 58.03 89.05 58.17 88.9 58.27 88.71 58.36 88.53 58.42 88.29 58.45 88.23 58.45 71.98 58.45 71.84 57.3 71.81 55.78"/></g></g></svg>